<svg xmlns="http://www.w3.org/2000/svg" width="60" height="60" viewBox="0 0 15.875 15.875"><path d="M12.207 0a3.517 3.517 0 00-3.525 3.525V7.13H9.89V3.757c0-1.595 1.034-2.45 2.317-2.45 1.283 0 2.316.855 2.316 2.45V7.13h1.209V3.525A3.517 3.517 0 0012.207 0zM3.625.04A3.517 3.517 0 00.1 3.567 3.517 3.517 0 003.625 7.09H7.23V5.882H3.857c-1.595 0-2.45-1.033-2.45-2.316 0-1.284.855-2.317 2.45-2.317h3.374V.041H3.666zm-.646 2.962v1.127h2.11V3.002zM.245 8.825v1.209H3.619c1.595 0 2.45 1.033 2.45 2.316 0 1.284-.855 2.317-2.45 2.317H.245v1.208H3.85a3.517 3.517 0 003.525-3.525A3.517 3.517 0 003.85 8.825H3.77zm8.437 0v1.209H12.057c1.594 0 2.449 1.033 2.449 2.316 0 1.284-.855 2.317-2.45 2.317H8.683v1.208H12.29a3.517 3.517 0 003.524-3.525 3.517 3.517 0 00-3.524-3.525h-.082zm1.127 2.47v2.11h1.127v-2.11zm-7.421.492v1.127h2.11v-1.127z" fill="#2c363f"/></svg>