<svg xmlns="http://www.w3.org/2000/svg" width="300" height="300" viewBox="0 0 79.375 79.375"><g fill="#a20021"><path d="M35.613 64.8c-1.158-.319-1.936-1.123-2.202-2.277-.05-.214-.085-2.138-.086-4.67l-.003-4.305h5.948l-.026 4.56-.025 4.56-.248.505c-.634 1.294-2.06 1.985-3.358 1.627zM43.739 64.791c-.82-.225-1.532-.806-1.95-1.588l-.194-.365-.025-4.645-.025-4.645h5.867l-.024 4.56-.024 4.56-.22.471c-.411.875-1.05 1.413-1.964 1.657-.538.143-.908.142-1.441-.006zM25.06 51.897a2.067 2.067 0 01-.613-.395c-.582-.564-.55.179-.523-11.663l.023-10.698.232-.332a2.54 2.54 0 01.546-.544l.313-.212 15.15-.025c10.587-.018 15.246.006 15.465.066.411.119.793.447 1.026.882l.187.35.026 10.308c.014 5.67.002 10.506-.027 10.747a1.919 1.919 0 01-.907 1.389l-.365.208-15.101.019c-12.696.015-15.155 0-15.431-.1zm4.02-1.276c.136-.07.285-.194.333-.276.05-.085.087-.102.089-.041.005.2.535.443.967.444.367 0 .45-.037.742-.33.293-.292.33-.375.33-.742-.001-.558-.221-.899-.713-1.1l-.39-.161V42.964l.266-.054c.146-.029.394-.19.551-.356.246-.26.286-.361.286-.729 0-.493-.205-.845-.615-1.057-.373-.193-.954-.113-1.237.17l-.22.22-.233-.223c-.497-.476-1.405-.308-1.73.32-.226.436-.129 1.064.21 1.367.15.133.383.264.52.292l.25.05v5.45l-.39.16c-.492.203-.712.543-.712 1.102 0 .367.036.45.329.742.288.289.378.33.725.33.218 0 .507-.058.642-.128zm21.72 0c.135-.07.285-.194.332-.276.05-.085.088-.102.09-.041.004.2.534.443.967.444.366 0 .45-.037.742-.33.292-.292.33-.375.329-.742 0-.558-.22-.899-.712-1.1l-.39-.161V42.964l.265-.054c.146-.029.395-.19.552-.356.24-.255.285-.365.285-.7 0-.762-.53-1.26-1.254-1.179-.254.03-.45.115-.598.263l-.22.22-.23-.22a1.018 1.018 0 00-.604-.263c-.727-.082-1.25.418-1.25 1.194 0 .355.039.451.288.7.159.16.407.313.551.342l.263.052V48.414l-.39.16c-.492.203-.712.543-.713 1.102 0 .367.037.45.33.742.288.289.378.33.725.33.218 0 .506-.058.642-.128zm-11.793-.505c.256-.132.685-.468.954-.747.268-.279.488-.469.488-.422 0 .175.9.965 1.352 1.188.423.207.565.231 1.363.231.79 0 .946-.026 1.378-.228.624-.292 1.24-.911 1.55-1.555.214-.446.245-.606.249-1.313.004-.73-.02-.858-.257-1.358a3.458 3.458 0 00-1.542-1.585c-.793-.389-2.16-.37-2.799.04l-.19.122v-1.971h1.868c2.094 0 2.348-.05 2.587-.512.29-.561-.085-1.216-.752-1.313-.194-.028-1.107-.04-2.028-.025l-1.676.026v-1.4h1.819c1.082 0 1.915-.037 2.057-.09.582-.221.837-.768.584-1.256-.25-.484-.429-.52-2.547-.52h-1.913v-1.443h1.975c2.169 0 2.222-.01 2.487-.524.185-.358.095-.768-.23-1.04l-.257-.218h-3.975v-1.442h1.87c2.077 0 2.348-.052 2.579-.498.23-.447.122-.901-.283-1.176-.192-.13-.477-.154-2.193-.177l-1.973-.027v-1.096l-1.166.024-1.167.023-.025.525-.025.525-1.997.026-1.997.027-.248.277c-.342.383-.342.844 0 1.228l.248.277 2 .025 2.002.026V34.195l-2.045.025-2.044.026-.204.254c-.366.459-.232 1.13.278 1.39.12.062.857.095 2.1.095h1.915v1.442H35.28l-.3.264c-.254.222-.3.318-.3.617 0 .195.062.443.138.552.268.382.57.434 2.532.434h1.827V40.65h-1.76c-.97 0-1.903.04-2.076.088-.68.19-.902 1.007-.401 1.487l.26.249 1.988.025 1.989.026v.938c0 .86-.013.933-.149.877-.645-.262-.92-.312-1.571-.282-1.558.07-2.724 1.094-3.031 2.661-.284 1.446.657 3.02 2.12 3.55.28.102.6.132 1.188.112.687-.023.875-.063 1.273-.267zM31.162 39.73c.35-.214.587-.755.51-1.168-.057-.304-.46-.808-.712-.891-.089-.03.047-.643.593-2.686l.709-2.649h.354c.63 0 1.213-.7 1.082-1.302-.169-.783-.976-1.209-1.64-.865-.227.117-.245.111-.428-.136-.248-.336-.707-.527-1.091-.455-.631.119-.95.52-.95 1.2 0 .365.035.433.393.776l.392.376-.275 1.03c-.151.567-.4 1.489-.551 2.049-.152.56-.345 1.277-.428 1.595-.114.432-.182.564-.274.529-.24-.092-.767.126-1.03.425-.218.248-.263.37-.263.717s.045.47.262.717c.35.4.796.522 1.246.342l.331-.133.343.343c.307.307.387.343.756.343.252 0 .514-.061.67-.157zm19.677-.106c.165-.145.3-.321.3-.392 0-.09.032-.104.106-.046.718.56 1.846.023 1.846-.88 0-.677-.448-1.147-1.109-1.165-.322-.008-.323-.01-.455-.519-.073-.28-.246-.93-.386-1.444-.14-.513-.394-1.46-.563-2.103l-.309-1.17.34-.291c.424-.364.56-.801.395-1.282-.296-.866-1.443-1.038-1.99-.299-.183.247-.201.253-.428.135-.555-.287-1.251-.025-1.55.582-.219.448-.129.853.282 1.264.275.274.378.322.693.323h.37l.71 2.648c.47 1.757.675 2.659.611 2.68-.254.085-.605.485-.685.782-.215.8.276 1.43 1.122 1.436.33.006.454-.043.7-.26zM39.346 26.769c-1.293-.246-2.641-1.047-3.444-2.047-.447-.557-.978-1.626-1.148-2.311-.166-.669-.138-2.207.05-2.842.88-2.95 3.776-4.765 6.643-4.162.838.176 1.482.436 2.084.84.75.504 1.098.843 1.566 1.53.73 1.07 1.034 2.045 1.034 3.319 0 .963-.166 1.675-.603 2.578-.273.566-.486.854-1.036 1.4-1.227 1.22-2.26 1.672-3.916 1.711-.56.013-1.113.006-1.23-.016z"/><path d="M25.108 51.885c-.187-.078-.53-.347-.764-.599l-.424-.456V29.144l.555-.554.554-.555 15.11-.045c13.404-.04 15.173-.015 15.668.22 1.068.506 1.032.094 1.032 11.895v10.746l-.555.555-.555.555-15.14.033c-8.328.018-15.294-.031-15.481-.109zm3.987-1.25c.355-.181.501-.174.89.045.417.236.511.236.93.006.664-.37.862-1.033.482-1.614-.165-.252-.445-.495-.622-.542-.3-.078-.322-.275-.322-2.783v-2.7l.414-.157c.796-.303.97-1.31.337-1.943-.314-.315-1.275-.354-1.566-.063-.158.158-.248.158-.407 0-.294-.294-1.16-.25-1.522.077-.312.282-.417 1.164-.18 1.518.068.102.296.277.506.388.372.195.382.273.382 2.91 0 1.957-.055 2.709-.199 2.709-.395 0-.82.568-.82 1.096 0 1.034.786 1.523 1.697 1.057zm21.703-.015c.348-.193.479-.186.89.048.434.248.526.25.947.015.664-.37.862-1.034.482-1.614-.165-.252-.445-.496-.622-.542-.3-.079-.323-.276-.323-2.784v-2.7l.414-.157c.796-.302.971-1.31.338-1.943-.315-.315-1.276-.353-1.566-.063-.158.159-.249.159-.407 0-.294-.294-1.16-.25-1.523.077-.311.283-.416 1.165-.18 1.518.069.103.296.277.506.388.372.196.382.273.382 2.91 0 1.957-.055 2.71-.198 2.71-.395 0-.82.568-.82 1.096 0 1.037.797 1.53 1.68 1.04zm-12.316-.284c.357-.099.937-.44 1.29-.759l.64-.579.408.437c1.162 1.244 3.111 1.374 4.395.294 2.048-1.723 1.274-5.049-1.31-5.63-.39-.087-.732-.14-.76-.118-.028.024-.375.091-.772.152l-.72.11v-1.7h1.918c2.139 0 2.535-.146 2.535-.933 0-.788-.396-.934-2.535-.934h-1.919v-1.358l1.909-.005c1.05-.006 1.993-.06 2.096-.127.41-.274.56-.813.349-1.239-.2-.4-.273-.415-2.28-.46l-2.074-.049v-1.347h1.874c1.762 0 1.9-.025 2.29-.415.273-.273.377-.519.305-.72-.246-.689-.389-.731-2.454-.731h-2.015v-1.528h2.015c2.065 0 2.208-.042 2.454-.73.072-.202-.032-.447-.306-.721-.39-.39-.527-.415-2.289-.415h-1.874v-1.018h-2.545v1.018h-1.829c-2.072 0-2.583.197-2.583.994 0 .785.242.872 2.41.872h2.002v1.528h-2.002c-2.168 0-2.41.087-2.41.872 0 .797.511.994 2.583.994h1.829v1.358h-2.002c-2.167 0-2.41.087-2.41.87 0 .861.335.996 2.473.996h1.939v1.358h-1.878c-2.205 0-2.534.12-2.534.933 0 .812.33.933 2.534.933h1.878v.849c0 .466-.057.846-.127.844a9.745 9.745 0 01-.764-.152c-1.376-.32-2.95.46-3.536 1.748-.796 1.753.047 3.805 1.823 4.439.8.285 1.147.297 1.98.065zm-7.466-10.533c.203-.108.426-.28.495-.382.243-.364.125-1.188-.222-1.558l-.352-.375.657-2.51c.62-2.373.683-2.518 1.126-2.637.258-.069.58-.216.713-.328.256-.212.328-1.13.114-1.45-.245-.366-.912-.599-1.407-.49-.282.062-.5.039-.5-.053 0-.089-.214-.251-.477-.36-.663-.275-1.342.006-1.504.617-.164.621-.097.904.319 1.353l.344.37-.673 2.507c-.63 2.346-.702 2.514-1.133 2.63-.703.187-.948.472-.948 1.1 0 .857.536 1.318 1.376 1.184.413-.066.66-.04.66.071 0 .16.561.468.902.495.077.006.306-.077.51-.184zm19.858-.188c.312-.312.465-.354.827-.227.563.198 1.266-.221 1.424-.85.143-.57-.402-1.321-1.012-1.394-.247-.03-.45-.08-.45-.111 0-.032-.303-1.183-.674-2.557l-.675-2.499.42-.5c.53-.63.532-1.056.004-1.583-.505-.505-.925-.527-1.495-.078-.301.236-.577.309-.917.24-.675-.134-1.414.456-1.414 1.13 0 .591.528 1.176 1.06 1.176.35 0 .443.224 1.078 2.588l.695 2.587-.398.374c-.551.517-.53 1.28.049 1.735.577.454 1.002.445 1.478-.032zM38.26 26.387c-1.291-.496-2.71-1.931-3.198-3.238-1.02-2.726.117-5.73 2.713-7.168.836-.463 1.041-.503 2.604-.503 1.953 0 2.676.275 3.96 1.503 1.122 1.073 1.6 2.137 1.685 3.757.1 1.881-.339 3.047-1.638 4.346-1.635 1.636-3.967 2.132-6.126 1.303zM42.986 64.405c-.34-.197-.798-.672-1.019-1.056-.388-.679-.401-.827-.452-5.238l-.053-4.539h5.98l-.053 4.637-.053 4.637-.451.682c-.248.375-.718.808-1.044.962-.828.393-2.096.356-2.855-.085zM34.89 64.484c-.313-.154-.77-.586-1.018-.96l-.45-.678-.052-4.637-.052-4.637h5.959v4.167c0 5.263-.128 5.816-1.544 6.68-.711.433-2.034.463-2.843.065z"/><path d="M36.808 48.065c-.808-.808-.31-1.959.847-1.959 1.082 0 1.525 1.348.665 2.024-.587.462-1.003.444-1.512-.065zM42.439 48.13c-.515-.405-.589-1.068-.183-1.647.371-.53 1.475-.53 1.847 0 .38.543.326 1.104-.152 1.582-.51.51-.925.527-1.512.065z"/></g></svg>