<svg xmlns="http://www.w3.org/2000/svg" width="300" height="300" viewBox="0 0 79.375 79.375"><g transform="translate(-446.391 -744.218)"><path d="M465.627 766.06l1.107 26.878 10.887 14.7 28.355-7.073 2.768-29.216-16.422-8.55z" fill="none" stroke="#a20021" stroke-width="1.181"/><path d="M465.689 766.06l11.81 10.148" fill="none" stroke="#a20021" stroke-width=".394"/><path d="M477.498 776.208l.185 31.37" fill="none" stroke="#a20021" stroke-width="1.181"/><path d="M492.506 804.01l1.415-30.385-14.332-9.288" fill="none" stroke="#a20021" stroke-width=".394"/><path d="M499.764 766.613l-28.847 3.998.738 29.032" fill="none" stroke="#a20021" stroke-width=".394"/><path d="M466.18 780.083l25.465-4.182 15.623 10.764M505.915 800.504l-14.7-12.61-24.665 4.983" fill="none" stroke="#a20021" stroke-width=".394"/><path d="M471.655 799.581l26.264-5.966 1.784-27.002" fill="none" stroke="#a20021" stroke-width=".394"/><path d="M492.506 803.887l-13.101-13.655.123-25.895M492.199 762.8l-1.046 24.972" fill="none" stroke="#a20021" stroke-width=".394"/><path d="M508.683 771.35l-31.123 4.981" fill="none" stroke="#a20021" stroke-width="1.181"/><path d="M466.12 780.022l11.501 12.793 29.709-6.273" fill="none" stroke="#a20021" stroke-width=".394"/><circle cx="465.719" cy="766.09" r="1.691" fill="#a20021"/><circle cx="471.009" cy="770.765" r="1.691" fill="#a20021"/><circle cx="477.221" cy="776.177" r="1.691" fill="#a20021"/><circle cx="479.497" cy="764.306" r="1.691" fill="#a20021"/><circle cx="486.079" cy="768.489" r="1.691" fill="#a20021"/><circle cx="493.706" cy="773.717" r="1.691" fill="#a20021"/><circle cx="492.229" cy="762.953" r="1.691" fill="#a20021"/><circle cx="499.549" cy="766.582" r="1.691" fill="#a20021"/><circle cx="508.898" cy="771.195" r="1.691" fill="#a20021"/><circle cx="506.007" cy="800.473" r="1.691" fill="#a20021"/><circle cx="492.598" cy="804.102" r="1.691" fill="#a20021"/><circle cx="477.775" cy="807.731" r="1.691" fill="#a20021"/><circle r="1.691" cy="799.673" cx="471.624" fill="#a20021"/><circle r="1.691" cy="796.414" cx="485.279" fill="#a20021"/><circle r="1.691" cy="793.584" cx="497.888" fill="#a20021"/><circle r="1.691" cy="780.975" cx="498.626" fill="#a20021"/><circle r="1.691" cy="776.423" cx="491.491" fill="#a20021"/><circle r="1.691" cy="786.572" cx="507.176" fill="#a20021"/><circle r="1.691" cy="789.34" cx="493.214" fill="#a20021"/><circle r="1.691" cy="792.6" cx="477.836" fill="#a20021"/><circle r="1.691" cy="785.834" cx="471.255" fill="#a20021"/><circle r="1.691" cy="780.237" cx="466.088" fill="#a20021"/><circle r="1.691" cy="778.084" cx="479.743" fill="#a20021"/><circle r="1.691" cy="789.955" cx="479.682" fill="#a20021"/><circle cx="490.753" cy="787.679" r="1.691" fill="#a20021"/><circle r="1.691" cy="792.908" cx="466.703" fill="#a20021"/></g></svg>