<svg xmlns="http://www.w3.org/2000/svg" width="300" height="300" viewBox="0 0 79.375 79.375"><g fill="#a20021"><path d="M37.594 60.802l-1.737-.639.035-4.189c.02-2.304.054-4.208.077-4.23.08-.08 2.297.78 3.068 1.19.966.515 1.272.937 1.45 2.003.202 1.206.03 5.815-.231 6.216-.282.432-.676.38-2.662-.351zm.92-1.43c.045-.116.082-1.32.082-2.673 0-2.282-.02-2.48-.267-2.728-.147-.147-.328-.267-.401-.267-.085 0-.134 1.069-.134 2.94v2.94h.32c.176 0 .356-.096.4-.212zM33.184 59.325c-1.15-.295-2.144-1-2.519-1.79-.237-.5-.458-2.628-.273-2.628.066 0 .496.134.955.299l.835.3v1.027c0 .755.056 1.082.21 1.237.499.498.72.146.724-1.151.002-1.002-.164-1.394-.731-1.729-.408-.24-.47-.345-.47-.79v-.513l.48.078c.6.097.718-.063.72-.982.002-.494-.072-.775-.265-1.002-.262-.31-.27-.31-.467-.056-.11.143-.2.458-.2.701 0 .516.03.512-1.003.13l-.802-.296.043-.798c.023-.439.134-.941.248-1.116.184-.284.274-.31.86-.24.361.043 1.045.264 1.52.49 1.257.6 1.805 1.456 1.805 2.816 0 .824-.095 1.052-.505 1.208l-.335.127.27.297c.411.452.528.759.62 1.633.108 1.023-.075 2.157-.399 2.475-.313.307-.797.407-1.32.273z"/><path d="M35.428 62.8c-3.763-1.452-6.935-2.717-7.048-2.811-.181-.15-.206-.985-.206-6.768v-6.597l.524-.368a52.11 52.11 0 011.524-1.003c.997-.634 1-.635 2.178-.635h1.18l-1.643 1.02c-.903.562-1.593 1.068-1.534 1.125.14.134 11.715 4.402 11.938 4.402.184 0 9.095-5.758 9.583-6.193.335-.298.394-.778.123-1.004-.126-.104-3.436-.158-11.348-.183-11.045-.035-11.174-.039-11.539-.311-.635-.474-.897-.936-.897-1.58 0-.694.281-1.189.887-1.558.414-.252.76-.26 11.492-.26 7.372 0 11.152-.048 11.324-.14.293-.156.352-.783.098-1.037-.119-.119-1.461-.16-5.215-.16-5.543 0-5.691-.019-6.235-.782-.16-.226-.329-.714-.372-1.084l-.08-.673H41.535v.53c0 .387.07.567.259.668.165.088 2.085.138 5.311.139 4.773 0 5.077.014 5.48.26.867.53 1.138 1.406.724 2.342-.214.482-.392.667-.845.872-.553.252-.96.26-11.603.264-8.398.005-11.069.04-11.19.163-.256.255-.187.741.136.968.263.184 1.569.208 11.42.208h11.122l.47.412c.262.23.528.627.604.901.157.566.19 13.77.036 13.996-.054.078-.58.474-1.167.88-.588.405-2.543 1.757-4.343 3.005-4.592 3.182-5.309 3.656-5.506 3.642-.095-.006-3.252-1.2-7.015-2.65zm6.508-4.67c0-4.318-.038-5.626-.167-5.726-.17-.133-.48-.251-6.58-2.507a740.68 740.68 0 01-4.506-1.679c-.567-.216-1.063-.393-1.102-.393-.04 0-.071 2.57-.07 5.712v5.712l1.97.732c1.084.402 3.774 1.404 5.979 2.227 2.205.822 4.114 1.5 4.242 1.506.22.01.234-.34.234-5.584zm5.785 2.362c2.44-1.704 4.481-3.163 4.535-3.24.154-.221.125-10.897-.03-10.897-.102 0-4.932 3.085-8.585 5.484l-.499.328-.002 5.713c0 3.141.031 5.712.072 5.712.04 0 2.07-1.395 4.51-3.1zM38.947 33.762a55.334 55.334 0 00-.307-1.537l-.073-.3h2.219c1.805 0 2.22.034 2.22.185 0 .102-.121.77-.268 1.484a48.543 48.543 0 00-.267 1.351c0 .03-.74.053-1.645.053h-1.644zM35.69 27.617l-1.728-3.108-2.894-.036-2.894-.036v-2.534h2.137c1.176 0 2.138-.028 2.138-.063 0-.034-.87-1.618-1.933-3.52-1.064-1.9-1.972-3.556-2.019-3.678-.079-.205.821-.221 12.37-.221 11.24 0 12.447.02 12.375.208-.044.115-.952 1.768-2.018 3.674-1.067 1.905-1.939 3.495-1.939 3.532 0 .037.962.068 2.138.068h2.138v2.534l-2.888.036-2.888.036-1.7 3.073-1.702 3.073-3.482.035-3.482.036zm8.81.633c.366-.662 1.422-2.586 2.348-4.276l3.061-5.593c.76-1.386 1.38-2.573 1.38-2.639 0-.069-4.399-.12-10.422-.12-5.732 0-10.422.049-10.422.108 0 .058.622 1.246 1.382 2.639 3.254 5.964 4.71 8.625 5.392 9.85l.727 1.305 2.943-.036 2.944-.036z"/></g></svg>